<svg width="72" height="72" viewBox="0 0 72 72" fill="none" xmlns="http://www.w3.org/2000/svg">
<circle cx="36" cy="36" r="36" fill="#341D0A" fill-opacity="0.6"/>
<path fill-rule="evenodd" clip-rule="evenodd" d="M26 47.25C26 47.5815 26.1317 47.8995 26.3661 48.1339C26.6005 48.3683 26.9185 48.5 27.25 48.5H47.25C47.5815 48.5 47.8995 48.3683 48.1339 48.1339C48.3683 47.8995 48.5 47.5815 48.5 47.25V24.75C48.5 24.4185 48.3683 24.1005 48.1339 23.8661C47.8995 23.6317 47.5815 23.5 47.25 23.5H27.25C26.9185 23.5 26.6005 23.6317 26.3661 23.8661C26.1317 24.1005 26 24.4185 26 24.75V29.75C26 30.0815 25.8683 30.3995 25.6339 30.6339C25.3995 30.8683 25.0815 31 24.75 31C24.4185 31 24.1005 30.8683 23.8661 30.6339C23.6317 30.3995 23.5 30.0815 23.5 29.75V24.75C23.5 23.7554 23.8951 22.8016 24.5983 22.0983C25.3016 21.3951 26.2554 21 27.25 21H47.25C48.2446 21 49.1984 21.3951 49.9017 22.0983C50.6049 22.8016 51 23.7554 51 24.75V47.25C51 48.2446 50.6049 49.1984 49.9017 49.9017C49.1984 50.6049 48.2446 51 47.25 51H27.25C26.2554 51 25.3016 50.6049 24.5983 49.9017C23.8951 49.1984 23.5 48.2446 23.5 47.25V42.25C23.5 41.9185 23.6317 41.6005 23.8661 41.3661C24.1005 41.1317 24.4185 41 24.75 41C25.0815 41 25.3995 41.1317 25.6339 41.3661C25.8683 41.6005 26 41.9185 26 42.25V47.25Z" fill="#FFC391"/>
<path fill-rule="evenodd" clip-rule="evenodd" d="M40.635 35.115C40.7514 35.2311 40.8438 35.3691 40.9068 35.5209C40.9698 35.6728 41.0022 35.8356 41.0022 36C41.0022 36.1644 40.9698 36.3272 40.9068 36.4791C40.8438 36.631 40.7514 36.7689 40.635 36.885L33.135 44.385C33.0188 44.5012 32.8808 44.5934 32.729 44.6563C32.5771 44.7192 32.4144 44.7516 32.25 44.7516C32.0856 44.7516 31.9229 44.7192 31.771 44.6563C31.6192 44.5934 31.4812 44.5012 31.365 44.385C31.2488 44.2688 31.1566 44.1308 31.0937 43.979C31.0308 43.8271 30.9984 43.6644 30.9984 43.5C30.9984 43.3356 31.0308 43.1729 31.0937 43.021C31.1566 42.8692 31.2488 42.7312 31.365 42.615L36.7325 37.25H14.75C14.4185 37.25 14.1005 37.1183 13.8661 36.8839C13.6317 36.6495 13.5 36.3315 13.5 36C13.5 35.6685 13.6317 35.3505 13.8661 35.1161C14.1005 34.8817 14.4185 34.75 14.75 34.75H36.7325L31.365 29.385C31.2488 29.2688 31.1566 29.1308 31.0937 28.979C31.0308 28.8271 30.9984 28.6644 30.9984 28.5C30.9984 28.3356 31.0308 28.1729 31.0937 28.021C31.1566 27.8692 31.2488 27.7312 31.365 27.615C31.4812 27.4988 31.6192 27.4066 31.771 27.3437C31.9229 27.2808 32.0856 27.2484 32.25 27.2484C32.4144 27.2484 32.5771 27.2808 32.729 27.3437C32.8808 27.4066 33.0188 27.4988 33.135 27.615L40.635 35.115Z" fill="#FFC391"/>
</svg>
