<svg width="242" height="105" viewBox="0 0 242 105" fill="none" xmlns="http://www.w3.org/2000/svg">
<path d="M11.467 0H174L163.032 52H0L11.467 0Z" fill="#341D0A"/>
<path d="M15.9484 48H242L226.745 105H0L15.9484 48Z" fill="#341D0A"/>
<path d="M35.768 9.04C41.5547 9.04 45.9787 10.6453 49.04 13.856C52.1387 17.0667 53.688 21.6213 53.688 27.52C53.688 33.4187 52.1387 37.9733 49.04 41.184C45.9787 44.3947 41.5547 46 35.768 46H20.088V9.04H35.768ZM34.816 38.72C37.952 38.72 40.2293 37.7867 41.648 35.92C43.104 34.016 43.832 31.216 43.832 27.52C43.832 23.824 43.104 21.0427 41.648 19.176C40.2293 17.272 37.952 16.32 34.816 16.32H29.72V38.72H34.816ZM71.8193 17.44C74.7686 17.44 77.3446 18.0187 79.5473 19.176C81.7873 20.296 83.5233 21.9573 84.7553 24.16C86.0246 26.3253 86.6593 28.9387 86.6593 32C86.6593 35.0613 86.0246 37.6933 84.7553 39.896C83.5233 42.0613 81.7873 43.7227 79.5473 44.88C77.3446 46 74.7686 46.56 71.8193 46.56C68.9446 46.56 66.3873 46 64.1473 44.88C61.9073 43.7227 60.1526 42.0613 58.8833 39.896C57.6513 37.6933 57.0353 35.0613 57.0353 32C57.0353 28.9387 57.6513 26.3253 58.8833 24.16C60.1526 21.9573 61.9073 20.296 64.1473 19.176C66.3873 18.0187 68.9446 17.44 71.8193 17.44ZM71.8193 24.216C70.7366 24.216 69.8033 24.4773 69.0193 25C68.2353 25.5227 67.638 26.3627 67.2273 27.52C66.8166 28.6773 66.6113 30.1707 66.6113 32C66.6113 33.8293 66.8166 35.3227 67.2273 36.48C67.638 37.6 68.2353 38.44 69.0193 39C69.8033 39.5227 70.7366 39.784 71.8193 39.784C72.9393 39.784 73.8913 39.5227 74.6753 39C75.4593 38.44 76.0566 37.6 76.4673 36.48C76.878 35.3227 77.0833 33.8293 77.0833 32C77.0833 30.1707 76.878 28.6773 76.4673 27.52C76.0566 26.3627 75.4593 25.5227 74.6753 25C73.8913 24.4773 72.9393 24.216 71.8193 24.216ZM90.8948 46V18H99.4068L99.9108 27.632L98.8468 26.568C99.2201 24.552 99.8734 22.872 100.807 21.528C101.777 20.184 102.972 19.176 104.391 18.504C105.847 17.7947 107.471 17.44 109.263 17.44C111.204 17.44 112.884 17.8133 114.303 18.56C115.759 19.3067 116.897 20.408 117.719 21.864C118.54 23.32 118.951 25.1493 118.951 27.352V46H109.431V29.872C109.431 27.9307 109.057 26.5867 108.311 25.84C107.564 25.0933 106.612 24.72 105.455 24.72C104.559 24.72 103.719 24.944 102.935 25.392C102.151 25.8027 101.535 26.4747 101.087 27.408C100.639 28.3413 100.415 29.592 100.415 31.16V46H90.8948ZM138.165 46.56C135.067 46.56 132.379 45.9813 130.101 44.824C127.861 43.6667 126.125 42.0053 124.893 39.84C123.661 37.6747 123.045 35.0613 123.045 32C123.045 28.9387 123.661 26.3253 124.893 24.16C126.125 21.9947 127.843 20.3333 130.045 19.176C132.285 18.0187 134.843 17.44 137.717 17.44C140.667 17.44 143.168 18.0187 145.221 19.176C147.312 20.296 148.899 21.864 149.981 23.88C151.064 25.8587 151.605 28.136 151.605 30.712C151.605 31.384 151.587 32.056 151.549 32.728C151.512 33.4 151.456 33.96 151.381 34.408H129.205V29.312H147.181L142.645 31.048C142.645 28.808 142.235 27.0907 141.413 25.896C140.629 24.7013 139.397 24.104 137.717 24.104C136.523 24.104 135.496 24.384 134.637 24.944C133.816 25.504 133.181 26.3813 132.733 27.576C132.323 28.7707 132.117 30.3013 132.117 32.168C132.117 33.9973 132.36 35.4907 132.845 36.648C133.331 37.768 134.021 38.5893 134.917 39.112C135.813 39.5973 136.896 39.84 138.165 39.84C139.584 39.84 140.704 39.56 141.525 39C142.384 38.44 143.019 37.656 143.429 36.648L151.045 39.168C150.523 40.7733 149.608 42.136 148.301 43.256C147.032 44.3387 145.501 45.16 143.709 45.72C141.955 46.28 140.107 46.56 138.165 46.56ZM37.728 52.04C42.1333 52.04 45.5493 53.0853 47.976 55.176C50.44 57.2293 51.672 59.9733 51.672 63.408C51.672 67.1787 50.4587 70.0533 48.032 72.032C45.6053 74.0107 42.1893 75 37.784 75L36.888 75.504H29.552V89H20.088V52.04H37.728ZM36.384 68.672C38.2507 68.672 39.6507 68.2987 40.584 67.552C41.5173 66.8053 41.984 65.6107 41.984 63.968C41.984 62.3627 41.5173 61.1867 40.584 60.44C39.6507 59.6933 38.2507 59.32 36.384 59.32H29.552V68.672H36.384ZM42.04 70.688L53.856 89H43.216L33.752 72.816L42.04 70.688ZM70.1866 89.56C67.0879 89.56 64.3999 88.9813 62.1226 87.824C59.8826 86.6667 58.1466 85.0053 56.9146 82.84C55.6826 80.6747 55.0666 78.0613 55.0666 75C55.0666 71.9387 55.6826 69.3253 56.9146 67.16C58.1466 64.9947 59.8639 63.3333 62.0666 62.176C64.3066 61.0187 66.8639 60.44 69.7386 60.44C72.6879 60.44 75.1892 61.0187 77.2426 62.176C79.3332 63.296 80.9199 64.864 82.0026 66.88C83.0852 68.8587 83.6266 71.136 83.6266 73.712C83.6266 74.384 83.6079 75.056 83.5706 75.728C83.5332 76.4 83.4772 76.96 83.4026 77.408H61.2266V72.312H79.2026L74.6666 74.048C74.6666 71.808 74.2559 70.0907 73.4346 68.896C72.6506 67.7013 71.4186 67.104 69.7386 67.104C68.5439 67.104 67.5172 67.384 66.6586 67.944C65.8372 68.504 65.2026 69.3813 64.7546 70.576C64.3439 71.7707 64.1386 73.3013 64.1386 75.168C64.1386 76.9973 64.3812 78.4907 64.8666 79.648C65.3519 80.768 66.0426 81.5893 66.9386 82.112C67.8346 82.5973 68.9172 82.84 70.1866 82.84C71.6052 82.84 72.7252 82.56 73.5466 82C74.4052 81.44 75.0399 80.656 75.4506 79.648L83.0666 82.168C82.5439 83.7733 81.6292 85.136 80.3226 86.256C79.0532 87.3387 77.5226 88.16 75.7306 88.72C73.9759 89.28 72.1279 89.56 70.1866 89.56ZM101.104 60.44C103.942 60.44 106.294 60.8507 108.16 61.672C110.064 62.456 111.539 63.52 112.584 64.864C113.667 66.1707 114.339 67.5893 114.6 69.12L105.808 72.032C105.547 70.4267 105.062 69.232 104.352 68.448C103.68 67.6267 102.691 67.216 101.384 67.216C100.19 67.216 99.1816 67.496 98.3603 68.056C97.5763 68.5787 96.9789 69.4373 96.5683 70.632C96.1576 71.7893 95.9523 73.2827 95.9523 75.112C95.9523 76.9413 96.1763 78.4347 96.6243 79.592C97.0723 80.712 97.7069 81.5333 98.5283 82.056C99.3496 82.5413 100.32 82.784 101.44 82.784C102.374 82.784 103.139 82.616 103.736 82.28C104.371 81.9067 104.894 81.384 105.304 80.712C105.715 80.04 105.976 79.2187 106.088 78.248L114.656 80.992C114.395 82.6347 113.686 84.1093 112.528 85.416C111.408 86.6853 109.915 87.6933 108.048 88.44C106.182 89.1867 103.998 89.56 101.496 89.56C98.4349 89.56 95.7656 89 93.4883 87.88C91.2109 86.7227 89.4563 85.0613 88.2243 82.896C86.9923 80.6933 86.3763 78.0613 86.3763 75C86.3763 71.9387 86.9923 69.3253 88.2243 67.16C89.4563 64.9573 91.1736 63.296 93.3763 62.176C95.6163 61.0187 98.1923 60.44 101.104 60.44ZM123.246 57.752C121.304 57.752 119.886 57.3973 118.99 56.688C118.131 55.9413 117.702 54.784 117.702 53.216C117.702 51.6107 118.131 50.4533 118.99 49.744C119.886 48.9973 121.304 48.624 123.246 48.624C125.15 48.624 126.55 48.9973 127.446 49.744C128.342 50.4533 128.79 51.6107 128.79 53.216C128.79 54.784 128.342 55.9413 127.446 56.688C126.55 57.3973 125.15 57.752 123.246 57.752ZM128.006 61V89H118.486V61H128.006ZM133.663 100.76V61H142.231L142.735 71.136L141.615 69.96C141.876 68.0933 142.455 66.4507 143.351 65.032C144.247 63.6133 145.404 62.4933 146.823 61.672C148.241 60.8507 149.865 60.44 151.695 60.44C154.009 60.44 156.025 61.0187 157.743 62.176C159.46 63.296 160.785 64.9387 161.719 67.104C162.689 69.232 163.175 71.8267 163.175 74.888C163.175 77.9493 162.689 80.5813 161.719 82.784C160.748 84.9867 159.385 86.6667 157.631 87.824C155.913 88.9813 153.897 89.56 151.583 89.56C149.044 89.56 146.991 88.8133 145.423 87.32C143.855 85.7893 142.809 83.8667 142.287 81.552L143.183 80.208V100.76H133.663ZM148.335 82.56C149.977 82.56 151.265 81.9627 152.199 80.768C153.132 79.536 153.599 77.6133 153.599 75C153.599 72.3867 153.132 70.4827 152.199 69.288C151.303 68.056 150.033 67.44 148.391 67.44C147.345 67.44 146.431 67.7387 145.647 68.336C144.863 68.896 144.247 69.736 143.799 70.856C143.388 71.976 143.183 73.3573 143.183 75C143.183 76.568 143.369 77.9307 143.743 79.088C144.153 80.208 144.751 81.0667 145.535 81.664C146.319 82.2613 147.252 82.56 148.335 82.56ZM181.316 89.56C178.217 89.56 175.529 88.9813 173.252 87.824C171.012 86.6667 169.276 85.0053 168.044 82.84C166.812 80.6747 166.196 78.0613 166.196 75C166.196 71.9387 166.812 69.3253 168.044 67.16C169.276 64.9947 170.993 63.3333 173.196 62.176C175.436 61.0187 177.993 60.44 180.868 60.44C183.817 60.44 186.319 61.0187 188.372 62.176C190.463 63.296 192.049 64.864 193.132 66.88C194.215 68.8587 194.756 71.136 194.756 73.712C194.756 74.384 194.737 75.056 194.7 75.728C194.663 76.4 194.607 76.96 194.532 77.408H172.356V72.312H190.332L185.796 74.048C185.796 71.808 185.385 70.0907 184.564 68.896C183.78 67.7013 182.548 67.104 180.868 67.104C179.673 67.104 178.647 67.384 177.788 67.944C176.967 68.504 176.332 69.3813 175.884 70.576C175.473 71.7707 175.268 73.3013 175.268 75.168C175.268 76.9973 175.511 78.4907 175.996 79.648C176.481 80.768 177.172 81.5893 178.068 82.112C178.964 82.5973 180.047 82.84 181.316 82.84C182.735 82.84 183.855 82.56 184.676 82C185.535 81.44 186.169 80.656 186.58 79.648L194.196 82.168C193.673 83.7733 192.759 85.136 191.452 86.256C190.183 87.3387 188.652 88.16 186.86 88.72C185.105 89.28 183.257 89.56 181.316 89.56ZM210.722 89.56C207.922 89.56 205.308 89.112 202.882 88.216C200.492 87.2827 198.514 85.9573 196.946 84.24L201.426 78.976C202.359 80.1707 203.591 81.1787 205.122 82C206.69 82.784 208.426 83.176 210.33 83.176C211.487 83.176 212.439 83.008 213.186 82.672C213.932 82.336 214.306 81.8133 214.306 81.104C214.306 80.5813 214.119 80.1707 213.746 79.872C213.372 79.536 212.626 79.256 211.506 79.032L207.586 78.248C204.076 77.5387 201.575 76.4933 200.082 75.112C198.626 73.6933 197.898 71.8453 197.898 69.568C197.898 68.0373 198.364 66.5813 199.298 65.2C200.231 63.7813 201.668 62.6427 203.61 61.784C205.551 60.888 208.034 60.44 211.058 60.44C213.895 60.44 216.396 60.8507 218.562 61.672C220.727 62.4933 222.444 63.688 223.714 65.256L219.178 70.408C218.282 69.288 217.124 68.4107 215.706 67.776C214.287 67.1413 212.868 66.824 211.45 66.824C210.554 66.824 209.788 66.9173 209.154 67.104C208.556 67.2533 208.108 67.4773 207.81 67.776C207.511 68.0747 207.362 68.448 207.362 68.896C207.362 69.3813 207.586 69.8107 208.034 70.184C208.519 70.52 209.396 70.8187 210.666 71.08L215.762 72.088C218.636 72.6107 220.708 73.5627 221.978 74.944C223.247 76.3253 223.882 77.9867 223.882 79.928C223.882 81.7573 223.396 83.4 222.426 84.856C221.455 86.312 219.999 87.4693 218.058 88.328C216.116 89.1493 213.671 89.56 210.722 89.56Z" fill="#FFDCBE"/>
</svg>
