<svg width="68" height="56" viewBox="0 0 68 56" fill="none" xmlns="http://www.w3.org/2000/svg">
<circle cx="36.5" cy="36.5" r="36.5" fill="#DCA06E"/>
<g clip-path="url(#clip0_50_93)">
<path d="M51.2469 52.1426C50.9571 52.4514 50.4874 52.4517 50.1975 52.1426L42.504 43.9364C42.2142 43.6273 42.2142 43.1263 42.504 42.8171C42.6489 42.6626 42.8387 42.5853 43.0287 42.5853C43.2185 42.5853 43.4085 42.6626 43.5535 42.8171L51.2469 51.0232C51.5367 51.3324 51.5367 51.8335 51.2469 52.1426Z" fill="#341D0A"/>
<path d="M53.3391 49.9461C53.0493 50.2551 52.5796 50.2551 52.2897 49.9461L44.5963 41.7398C44.3066 41.4306 44.3066 40.9296 44.5963 40.6205C44.7412 40.466 44.9312 40.3887 45.121 40.3887C45.3108 40.3887 45.5008 40.466 45.6457 40.6205L53.3391 48.8269C53.629 49.136 53.629 49.6371 53.3391 49.9461Z" fill="#341D0A"/>
<path d="M46.0813 36.0884L55.6317 46.2755C55.9215 46.5848 55.9215 47.0858 55.6317 47.3949C55.3418 47.7038 54.8721 47.704 54.5823 47.3949L45.032 37.2078C43.8554 35.9528 42.0564 35.6236 40.5554 36.3882C40.2567 36.5402 39.9002 36.4633 39.6806 36.1994L36.4355 32.2995C36.4343 32.298 36.4328 32.2967 36.4315 32.2952C36.4302 32.2936 36.4292 32.292 36.428 32.2904L22.4024 15.4353C22.3988 15.431 22.3953 15.4266 22.3918 15.4222C22.3456 15.3643 22.3019 15.3134 22.2577 15.2661C21.3316 14.2784 19.8248 14.2785 18.8992 15.2661C18.4506 15.7445 18.2036 16.3807 18.2036 17.0574C18.2036 17.734 18.4506 18.3702 18.9 18.8495C18.9431 18.8957 18.9907 18.9421 19.0455 18.9919C19.0497 18.9956 19.0537 18.9994 19.0577 19.0031L27.8261 27.3047C28.1327 27.5949 28.1605 28.0951 27.8885 28.422C27.6165 28.749 27.1474 28.7789 26.8411 28.4885L18.0785 20.1925C17.9947 20.1163 17.9197 20.0425 17.8498 19.9679C17.121 19.1905 16.7196 18.1568 16.7196 17.0574C16.7196 15.958 17.1209 14.9243 17.8498 14.1468C18.6022 13.3444 19.5902 12.9432 20.5785 12.9433C21.5665 12.9433 22.5548 13.3444 23.3066 14.1464C23.3779 14.2223 23.4469 14.3023 23.5177 14.3908L34.2056 27.2352L44.8936 14.3906C44.9644 14.3021 45.0334 14.222 45.1042 14.1467C45.8564 13.3443 46.8446 12.9431 47.8327 12.9431C48.821 12.9431 49.8092 13.3444 50.5615 14.1468C52.0658 15.7516 52.0658 18.3628 50.5619 19.9672C50.4909 20.0432 50.4158 20.1168 50.3329 20.1923L38.0342 31.8362L40.4404 34.7279C42.39 33.9911 44.596 34.5044 46.0813 36.0884ZM49.3534 19.0031C49.3575 18.9993 49.3616 18.9955 49.3657 18.9918C49.42 18.9425 49.4677 18.8959 49.512 18.8487C50.438 17.861 50.438 16.2539 49.5121 15.2663C48.586 14.2786 47.0794 14.2786 46.153 15.2667C46.1092 15.3135 46.0654 15.3644 46.0191 15.4224C46.0157 15.4268 46.0121 15.4311 46.0086 15.4354L35.1976 28.4276L37.0489 30.6524L49.3534 19.0031Z" fill="#341D0A"/>
<path d="M49.0197 54.4478C48.7298 54.7567 48.2601 54.7567 47.9703 54.4478L38.4201 44.2606C36.9346 42.6763 36.4536 40.3235 37.1444 38.2435L34.2055 35.4611L31.381 38.1352C32.8417 41.2009 32.3085 44.9231 29.9911 47.395C27.6896 49.85 25.0238 51.5776 22.4847 52.2595C19.8341 52.9712 17.5616 52.4961 16.0852 50.9213C14.6088 49.3466 14.1633 46.9222 14.8307 44.0951C15.47 41.387 17.0896 38.5434 19.3913 36.0885C21.7087 33.6165 25.1982 33.0478 28.0724 34.6059C28.0724 34.6059 30.8345 31.2866 30.8695 31.2445C31.0161 31.0682 31.2199 30.9785 31.4248 30.9785C31.6 30.9785 31.7757 31.0442 31.9171 31.178L38.524 37.4333C38.7714 37.6675 38.8434 38.048 38.701 38.3664C37.984 39.9676 38.2928 41.8864 39.4694 43.1413L49.0197 53.3284C49.3095 53.6376 49.3095 54.1387 49.0197 54.4478ZM31.4868 32.887L28.7858 36.133C28.5466 36.4204 28.1481 36.4832 27.8414 36.2812C25.4624 34.7164 22.419 35.0972 20.4405 37.2077C18.3257 39.4634 16.8445 42.0466 16.2696 44.4817C15.735 46.7471 16.0421 48.6367 17.1346 49.802C18.227 50.9674 19.9984 51.2948 22.1223 50.7244C24.4052 50.1113 26.827 48.5315 28.9416 46.2757C30.9202 44.1654 31.2772 40.9191 29.8102 38.3815C29.621 38.0543 29.6797 37.6294 29.9492 37.3741L33.0876 34.4028L31.4868 32.887Z" fill="#341D0A"/>
</g>
<defs>
<clipPath id="clip0_50_93">
<rect width="41.3208" height="44.0755" fill="white" transform="matrix(1 0 0 -1 14.5283 55.8491)"/>
</clipPath>
</defs>
</svg>
