<svg width="42" height="42" viewBox="0 0 42 42" fill="none" xmlns="http://www.w3.org/2000/svg">
<circle cx="21" cy="21" r="21" fill="#341D0A"/>
<path d="M21.5 19.5C24.6756 19.5 27.25 16.9256 27.25 13.75C27.25 10.5744 24.6756 8 21.5 8C18.3244 8 15.75 10.5744 15.75 13.75C15.75 16.9256 18.3244 19.5 21.5 19.5ZM25.3333 13.75C25.3333 15.8671 23.6171 17.5833 21.5 17.5833C19.3829 17.5833 17.6667 15.8671 17.6667 13.75C17.6667 11.6329 19.3829 9.91667 21.5 9.91667C23.6171 9.91667 25.3333 11.6329 25.3333 13.75Z" fill="#DCA06E"/>
<path d="M33 29.0833C33 31 31.0833 31 31.0833 31H11.9167C11.9167 31 10 31 10 29.0833C10 27.1667 11.9167 21.4167 21.5 21.4167C31.0833 21.4167 33 27.1667 33 29.0833ZM31.0833 29.0767C31.0806 28.6037 30.7886 27.1867 29.4884 25.8865C28.2383 24.6364 25.8874 23.3333 21.5 23.3333C17.1125 23.3333 14.7617 24.6364 13.5115 25.8865C12.2114 27.1867 11.9194 28.6037 11.9167 29.0767H31.0833Z" fill="#DCA06E"/>
</svg>
