<svg width="247" height="105" viewBox="0 0 247 105" fill="none" xmlns="http://www.w3.org/2000/svg">
<path d="M16.2779 0H247L231.43 52H0L16.2779 0Z" fill="#341D0A"/>
<path d="M15.9484 48H242L226.745 105H0L15.9484 48Z" fill="#341D0A"/>
<path d="M48.816 16.488H29.72V24.328H44.952V31.776H29.72V46H20.088V9.04H48.816V16.488ZM65.6934 28.248C65.6934 26.9413 65.3201 25.9147 64.5734 25.168C63.8641 24.384 62.8934 23.992 61.6614 23.992C60.4294 23.992 59.3654 24.3093 58.4694 24.944C57.6108 25.5413 57.0134 26.624 56.6774 28.192L48.6134 26.288C49.1361 23.6 50.5174 21.4533 52.7574 19.848C54.9974 18.2427 58.1521 17.44 62.2214 17.44C64.9468 17.44 67.2614 17.8507 69.1654 18.672C71.1068 19.456 72.5814 20.6507 73.5894 22.256C74.6348 23.824 75.1574 25.7653 75.1574 28.08V38.328C75.1574 39.784 75.8108 40.512 77.1174 40.512C77.7894 40.512 78.3308 40.4373 78.7414 40.288L78.1814 45.72C77.0614 46.2427 75.6988 46.504 74.0934 46.504C72.6374 46.504 71.3494 46.28 70.2294 45.832C69.1094 45.3467 68.2321 44.6373 67.5974 43.704C66.9628 42.7333 66.6454 41.52 66.6454 40.064V39.728L67.7094 39.336C67.7094 40.9413 67.2241 42.2853 66.2534 43.368C65.3201 44.4507 64.0881 45.2533 62.5574 45.776C61.0641 46.2987 59.4961 46.56 57.8534 46.56C55.9494 46.56 54.2881 46.2613 52.8694 45.664C51.4508 45.0667 50.3494 44.208 49.5654 43.088C48.8188 41.9307 48.4454 40.512 48.4454 38.832C48.4454 36.816 49.0428 35.1547 50.2374 33.848C51.4694 32.504 53.3921 31.5707 56.0054 31.048L66.5894 28.864L66.5334 33.904L61.1574 35.024C60.0374 35.248 59.1974 35.584 58.6374 36.032C58.1148 36.4427 57.8534 37.0773 57.8534 37.936C57.8534 38.7573 58.1521 39.3733 58.7494 39.784C59.3468 40.1947 60.0561 40.4 60.8774 40.4C61.5121 40.4 62.1094 40.3067 62.6694 40.12C63.2668 39.9333 63.7894 39.6533 64.2374 39.28C64.6854 38.8693 65.0401 38.3653 65.3014 37.768C65.5628 37.1707 65.6934 36.4613 65.6934 35.64V28.248ZM98.376 18H108.232L98.152 46H86.784L76.704 18H86.728L92.496 39.336L98.376 18ZM123.282 17.44C126.232 17.44 128.808 18.0187 131.01 19.176C133.25 20.296 134.986 21.9573 136.218 24.16C137.488 26.3253 138.122 28.9387 138.122 32C138.122 35.0613 137.488 37.6933 136.218 39.896C134.986 42.0613 133.25 43.7227 131.01 44.88C128.808 46 126.232 46.56 123.282 46.56C120.408 46.56 117.85 46 115.61 44.88C113.37 43.7227 111.616 42.0613 110.346 39.896C109.114 37.6933 108.498 35.0613 108.498 32C108.498 28.9387 109.114 26.3253 110.346 24.16C111.616 21.9573 113.37 20.296 115.61 19.176C117.85 18.0187 120.408 17.44 123.282 17.44ZM123.282 24.216C122.2 24.216 121.266 24.4773 120.482 25C119.698 25.5227 119.101 26.3627 118.69 27.52C118.28 28.6773 118.074 30.1707 118.074 32C118.074 33.8293 118.28 35.3227 118.69 36.48C119.101 37.6 119.698 38.44 120.482 39C121.266 39.5227 122.2 39.784 123.282 39.784C124.402 39.784 125.354 39.5227 126.138 39C126.922 38.44 127.52 37.6 127.93 36.48C128.341 35.3227 128.546 33.8293 128.546 32C128.546 30.1707 128.341 28.6773 127.93 27.52C127.52 26.3627 126.922 25.5227 126.138 25C125.354 24.4773 124.402 24.216 123.282 24.216ZM142.358 46V18H150.758L151.15 24.048C151.859 21.9573 152.905 20.3333 154.286 19.176C155.705 18.0187 157.497 17.44 159.662 17.44C160.371 17.44 160.969 17.496 161.454 17.608C161.977 17.72 162.387 17.8693 162.686 18.056L161.734 25.896C161.361 25.7467 160.875 25.6347 160.278 25.56C159.718 25.448 159.027 25.392 158.206 25.392C157.086 25.392 156.041 25.6347 155.07 26.12C154.099 26.6053 153.315 27.3333 152.718 28.304C152.158 29.2373 151.878 30.432 151.878 31.888V46H142.358ZM170.06 14.752C168.119 14.752 166.7 14.3973 165.804 13.688C164.946 12.9413 164.516 11.784 164.516 10.216C164.516 8.61066 164.946 7.45333 165.804 6.744C166.7 5.99733 168.119 5.624 170.06 5.624C171.964 5.624 173.364 5.99733 174.26 6.744C175.156 7.45333 175.604 8.61066 175.604 10.216C175.604 11.784 175.156 12.9413 174.26 13.688C173.364 14.3973 171.964 14.752 170.06 14.752ZM174.82 18V46H165.3V18H174.82ZM192.181 9.096V36.032C192.181 37.376 192.499 38.3467 193.133 38.944C193.805 39.504 194.72 39.784 195.877 39.784C196.773 39.784 197.539 39.6907 198.173 39.504C198.845 39.28 199.443 38.9627 199.965 38.552L200.973 44.432C200.04 45.104 198.864 45.6267 197.445 46C196.027 46.3733 194.571 46.56 193.077 46.56C190.949 46.56 189.101 46.2613 187.533 45.664C186.003 45.0667 184.808 44.1147 183.949 42.808C183.128 41.5013 182.699 39.7653 182.661 37.6V11.728L192.181 9.096ZM200.525 18V24.776H177.845V18H200.525ZM217.467 46.56C214.368 46.56 211.68 45.9813 209.403 44.824C207.163 43.6667 205.427 42.0053 204.195 39.84C202.963 37.6747 202.347 35.0613 202.347 32C202.347 28.9387 202.963 26.3253 204.195 24.16C205.427 21.9947 207.144 20.3333 209.347 19.176C211.587 18.0187 214.144 17.44 217.019 17.44C219.968 17.44 222.469 18.0187 224.523 19.176C226.613 20.296 228.2 21.864 229.283 23.88C230.365 25.8587 230.907 28.136 230.907 30.712C230.907 31.384 230.888 32.056 230.851 32.728C230.813 33.4 230.757 33.96 230.683 34.408H208.507V29.312H226.483L221.947 31.048C221.947 28.808 221.536 27.0907 220.715 25.896C219.931 24.7013 218.699 24.104 217.019 24.104C215.824 24.104 214.797 24.384 213.939 24.944C213.117 25.504 212.483 26.3813 212.035 27.576C211.624 28.7707 211.419 30.3013 211.419 32.168C211.419 33.9973 211.661 35.4907 212.147 36.648C212.632 37.768 213.323 38.5893 214.219 39.112C215.115 39.5973 216.197 39.84 217.467 39.84C218.885 39.84 220.005 39.56 220.827 39C221.685 38.44 222.32 37.656 222.731 36.648L230.347 39.168C229.824 40.7733 228.909 42.136 227.603 43.256C226.333 44.3387 224.803 45.16 223.011 45.72C221.256 46.28 219.408 46.56 217.467 46.56ZM37.728 52.04C42.1333 52.04 45.5493 53.0853 47.976 55.176C50.44 57.2293 51.672 59.9733 51.672 63.408C51.672 67.1787 50.4587 70.0533 48.032 72.032C45.6053 74.0107 42.1893 75 37.784 75L36.888 75.504H29.552V89H20.088V52.04H37.728ZM36.384 68.672C38.2507 68.672 39.6507 68.2987 40.584 67.552C41.5173 66.8053 41.984 65.6107 41.984 63.968C41.984 62.3627 41.5173 61.1867 40.584 60.44C39.6507 59.6933 38.2507 59.32 36.384 59.32H29.552V68.672H36.384ZM42.04 70.688L53.856 89H43.216L33.752 72.816L42.04 70.688ZM70.1866 89.56C67.0879 89.56 64.3999 88.9813 62.1226 87.824C59.8826 86.6667 58.1466 85.0053 56.9146 82.84C55.6826 80.6747 55.0666 78.0613 55.0666 75C55.0666 71.9387 55.6826 69.3253 56.9146 67.16C58.1466 64.9947 59.8639 63.3333 62.0666 62.176C64.3066 61.0187 66.8639 60.44 69.7386 60.44C72.6879 60.44 75.1892 61.0187 77.2426 62.176C79.3332 63.296 80.9199 64.864 82.0026 66.88C83.0852 68.8587 83.6266 71.136 83.6266 73.712C83.6266 74.384 83.6079 75.056 83.5706 75.728C83.5332 76.4 83.4772 76.96 83.4026 77.408H61.2266V72.312H79.2026L74.6666 74.048C74.6666 71.808 74.2559 70.0907 73.4346 68.896C72.6506 67.7013 71.4186 67.104 69.7386 67.104C68.5439 67.104 67.5172 67.384 66.6586 67.944C65.8372 68.504 65.2026 69.3813 64.7546 70.576C64.3439 71.7707 64.1386 73.3013 64.1386 75.168C64.1386 76.9973 64.3812 78.4907 64.8666 79.648C65.3519 80.768 66.0426 81.5893 66.9386 82.112C67.8346 82.5973 68.9172 82.84 70.1866 82.84C71.6052 82.84 72.7252 82.56 73.5466 82C74.4052 81.44 75.0399 80.656 75.4506 79.648L83.0666 82.168C82.5439 83.7733 81.6292 85.136 80.3226 86.256C79.0532 87.3387 77.5226 88.16 75.7306 88.72C73.9759 89.28 72.1279 89.56 70.1866 89.56ZM101.104 60.44C103.942 60.44 106.294 60.8507 108.16 61.672C110.064 62.456 111.539 63.52 112.584 64.864C113.667 66.1707 114.339 67.5893 114.6 69.12L105.808 72.032C105.547 70.4267 105.062 69.232 104.352 68.448C103.68 67.6267 102.691 67.216 101.384 67.216C100.19 67.216 99.1816 67.496 98.3603 68.056C97.5763 68.5787 96.9789 69.4373 96.5683 70.632C96.1576 71.7893 95.9523 73.2827 95.9523 75.112C95.9523 76.9413 96.1763 78.4347 96.6243 79.592C97.0723 80.712 97.7069 81.5333 98.5283 82.056C99.3496 82.5413 100.32 82.784 101.44 82.784C102.374 82.784 103.139 82.616 103.736 82.28C104.371 81.9067 104.894 81.384 105.304 80.712C105.715 80.04 105.976 79.2187 106.088 78.248L114.656 80.992C114.395 82.6347 113.686 84.1093 112.528 85.416C111.408 86.6853 109.915 87.6933 108.048 88.44C106.182 89.1867 103.998 89.56 101.496 89.56C98.4349 89.56 95.7656 89 93.4883 87.88C91.2109 86.7227 89.4563 85.0613 88.2243 82.896C86.9923 80.6933 86.3763 78.0613 86.3763 75C86.3763 71.9387 86.9923 69.3253 88.2243 67.16C89.4563 64.9573 91.1736 63.296 93.3763 62.176C95.6163 61.0187 98.1923 60.44 101.104 60.44ZM123.246 57.752C121.304 57.752 119.886 57.3973 118.99 56.688C118.131 55.9413 117.702 54.784 117.702 53.216C117.702 51.6107 118.131 50.4533 118.99 49.744C119.886 48.9973 121.304 48.624 123.246 48.624C125.15 48.624 126.55 48.9973 127.446 49.744C128.342 50.4533 128.79 51.6107 128.79 53.216C128.79 54.784 128.342 55.9413 127.446 56.688C126.55 57.3973 125.15 57.752 123.246 57.752ZM128.006 61V89H118.486V61H128.006ZM133.663 100.76V61H142.231L142.735 71.136L141.615 69.96C141.876 68.0933 142.455 66.4507 143.351 65.032C144.247 63.6133 145.404 62.4933 146.823 61.672C148.241 60.8507 149.865 60.44 151.695 60.44C154.009 60.44 156.025 61.0187 157.743 62.176C159.46 63.296 160.785 64.9387 161.719 67.104C162.689 69.232 163.175 71.8267 163.175 74.888C163.175 77.9493 162.689 80.5813 161.719 82.784C160.748 84.9867 159.385 86.6667 157.631 87.824C155.913 88.9813 153.897 89.56 151.583 89.56C149.044 89.56 146.991 88.8133 145.423 87.32C143.855 85.7893 142.809 83.8667 142.287 81.552L143.183 80.208V100.76H133.663ZM148.335 82.56C149.977 82.56 151.265 81.9627 152.199 80.768C153.132 79.536 153.599 77.6133 153.599 75C153.599 72.3867 153.132 70.4827 152.199 69.288C151.303 68.056 150.033 67.44 148.391 67.44C147.345 67.44 146.431 67.7387 145.647 68.336C144.863 68.896 144.247 69.736 143.799 70.856C143.388 71.976 143.183 73.3573 143.183 75C143.183 76.568 143.369 77.9307 143.743 79.088C144.153 80.208 144.751 81.0667 145.535 81.664C146.319 82.2613 147.252 82.56 148.335 82.56ZM181.316 89.56C178.217 89.56 175.529 88.9813 173.252 87.824C171.012 86.6667 169.276 85.0053 168.044 82.84C166.812 80.6747 166.196 78.0613 166.196 75C166.196 71.9387 166.812 69.3253 168.044 67.16C169.276 64.9947 170.993 63.3333 173.196 62.176C175.436 61.0187 177.993 60.44 180.868 60.44C183.817 60.44 186.319 61.0187 188.372 62.176C190.463 63.296 192.049 64.864 193.132 66.88C194.215 68.8587 194.756 71.136 194.756 73.712C194.756 74.384 194.737 75.056 194.7 75.728C194.663 76.4 194.607 76.96 194.532 77.408H172.356V72.312H190.332L185.796 74.048C185.796 71.808 185.385 70.0907 184.564 68.896C183.78 67.7013 182.548 67.104 180.868 67.104C179.673 67.104 178.647 67.384 177.788 67.944C176.967 68.504 176.332 69.3813 175.884 70.576C175.473 71.7707 175.268 73.3013 175.268 75.168C175.268 76.9973 175.511 78.4907 175.996 79.648C176.481 80.768 177.172 81.5893 178.068 82.112C178.964 82.5973 180.047 82.84 181.316 82.84C182.735 82.84 183.855 82.56 184.676 82C185.535 81.44 186.169 80.656 186.58 79.648L194.196 82.168C193.673 83.7733 192.759 85.136 191.452 86.256C190.183 87.3387 188.652 88.16 186.86 88.72C185.105 89.28 183.257 89.56 181.316 89.56ZM210.722 89.56C207.922 89.56 205.308 89.112 202.882 88.216C200.492 87.2827 198.514 85.9573 196.946 84.24L201.426 78.976C202.359 80.1707 203.591 81.1787 205.122 82C206.69 82.784 208.426 83.176 210.33 83.176C211.487 83.176 212.439 83.008 213.186 82.672C213.932 82.336 214.306 81.8133 214.306 81.104C214.306 80.5813 214.119 80.1707 213.746 79.872C213.372 79.536 212.626 79.256 211.506 79.032L207.586 78.248C204.076 77.5387 201.575 76.4933 200.082 75.112C198.626 73.6933 197.898 71.8453 197.898 69.568C197.898 68.0373 198.364 66.5813 199.298 65.2C200.231 63.7813 201.668 62.6427 203.61 61.784C205.551 60.888 208.034 60.44 211.058 60.44C213.895 60.44 216.396 60.8507 218.562 61.672C220.727 62.4933 222.444 63.688 223.714 65.256L219.178 70.408C218.282 69.288 217.124 68.4107 215.706 67.776C214.287 67.1413 212.868 66.824 211.45 66.824C210.554 66.824 209.788 66.9173 209.154 67.104C208.556 67.2533 208.108 67.4773 207.81 67.776C207.511 68.0747 207.362 68.448 207.362 68.896C207.362 69.3813 207.586 69.8107 208.034 70.184C208.519 70.52 209.396 70.8187 210.666 71.08L215.762 72.088C218.636 72.6107 220.708 73.5627 221.978 74.944C223.247 76.3253 223.882 77.9867 223.882 79.928C223.882 81.7573 223.396 83.4 222.426 84.856C221.455 86.312 219.999 87.4693 218.058 88.328C216.116 89.1493 213.671 89.56 210.722 89.56Z" fill="#FFDCBE"/>
</svg>
