<svg width="47" height="47" viewBox="0 0 47 47" fill="none" xmlns="http://www.w3.org/2000/svg">
<circle cx="23.5" cy="23.5" r="23.5" fill="#341D0A"/>
<path d="M14.125 17.25C14.125 15.5241 15.5241 14.125 17.25 14.125H26.625C28.3509 14.125 29.75 15.5241 29.75 17.25V35.2188C29.75 35.5069 29.5914 35.7716 29.3374 35.9076C29.0834 36.0435 28.7751 36.0286 28.5354 35.8688L21.9375 31.4702L15.3396 35.8688C15.0999 36.0286 14.7916 36.0435 14.5376 35.9076C14.2836 35.7716 14.125 35.5069 14.125 35.2188V17.25ZM17.25 15.6875C16.3871 15.6875 15.6875 16.3871 15.6875 17.25V33.759L21.5041 29.8812C21.7666 29.7063 22.1084 29.7063 22.3709 29.8812L28.1875 33.759V17.25C28.1875 16.3871 27.4879 15.6875 26.625 15.6875H17.25Z" fill="#DCA06E"/>
<path d="M17.6681 12.5625H29.75C29.8579 12.5625 29.9632 12.5734 30.0649 12.5942C30.7769 12.7399 31.3125 13.3699 31.3125 14.125V32.5119L31.6604 32.7438C31.9001 32.9036 32.2084 32.9185 32.4624 32.7826C32.7164 32.6466 32.875 32.3819 32.875 32.0938V14.125C32.875 12.3991 31.4759 11 29.75 11H20.375C19.2183 11 18.2084 11.6284 17.6681 12.5625Z" fill="#DCA06E"/>
<g clip-path="url(#clip0_52_48)">
<path d="M14.125 16.75C14.125 15.9875 14.4542 15.2562 15.0403 14.7171C15.6263 14.1779 16.4212 13.875 17.25 13.875H26.625C27.4538 13.875 28.2487 14.1779 28.8347 14.7171C29.4208 15.2562 29.75 15.9875 29.75 16.75V33.2812C29.7499 33.4113 29.7115 33.5388 29.6389 33.6503C29.5662 33.7619 29.4621 33.8532 29.3375 33.9145C29.2129 33.9759 29.0726 34.005 28.9314 33.9988C28.7903 33.9926 28.6536 33.9513 28.5359 33.8793L21.9375 29.8327L15.3391 33.8793C15.2214 33.9513 15.0847 33.9926 14.9436 33.9988C14.8024 34.005 14.6621 33.9759 14.5375 33.9145C14.4129 33.8532 14.3088 33.7619 14.2361 33.6503C14.1635 33.5388 14.1251 33.4113 14.125 33.2812V16.75Z" fill="#DCA06E"/>
<path d="M17.6688 12.4375C17.943 12.0005 18.3375 11.6375 18.8126 11.3852C19.2876 11.1329 19.8265 11 20.375 11H29.75C30.5788 11 31.3737 11.3029 31.9597 11.8421C32.5458 12.3812 32.875 13.1125 32.875 13.875V30.4062C32.8749 30.5363 32.8365 30.6638 32.7639 30.7753C32.6913 30.8869 32.5871 30.9782 32.4625 31.0395C32.3379 31.1009 32.1976 31.13 32.0564 31.1238C31.9153 31.1176 31.7786 31.0763 31.661 31.0043L31.3125 30.7915V13.875C31.3125 13.4938 31.1479 13.1281 30.8549 12.8585C30.5618 12.589 30.1644 12.4375 29.75 12.4375H17.6688Z" fill="#DCA06E"/>
</g>
<defs>
<clipPath id="clip0_52_48">
<rect width="25" height="23" fill="white" transform="translate(11 11)"/>
</clipPath>
</defs>
</svg>
