<svg width="63" height="55" viewBox="0 0 63 55" fill="none" xmlns="http://www.w3.org/2000/svg">
<circle cx="26.5" cy="36.5" r="36.5" fill="#DCA06E"/>
<path d="M42.6908 9.6948C42.9733 10.4011 42.6298 11.2027 41.9235 11.4852L35.712 13.9698L34.6115 19.2761C35.6461 19.5379 36.5785 19.8699 37.2878 20.2892C37.9167 20.6609 38.8302 21.3792 38.8302 22.5471C38.8302 22.674 38.8194 22.7955 38.7994 22.9118L36.1514 47.8912C36.0542 48.8138 35.6284 49.8114 34.7065 50.4536C33.3626 51.3899 30.5919 52.849 26.4153 52.849C22.2388 52.849 19.4681 51.3899 18.1241 50.4536C17.2023 49.8114 16.7764 48.8138 16.6793 47.8912L14.0685 22.9118C14.0485 22.7955 14.0378 22.674 14.0378 22.5471C14.0378 21.3792 14.9513 20.6609 15.5802 20.2892C16.3013 19.8629 17.253 19.5269 18.3084 19.263C20.4403 18.73 23.3125 18.4151 26.434 18.4151C28.3963 18.4151 30.26 18.5395 31.9033 18.7644L33.1806 12.6623C33.2793 12.218 33.5911 11.8512 34.0136 11.6822L40.9004 8.92749C41.6067 8.64498 42.4083 8.98851 42.6908 9.6948ZM31.3035 21.4636C29.8619 21.2776 28.2064 21.1698 26.434 21.1698C23.4699 21.1698 20.8327 21.4715 18.9765 21.9355C18.188 22.1326 17.5948 22.3459 17.1916 22.5471C17.5948 22.7484 18.188 22.9617 18.9765 23.1588C20.8327 23.6228 23.4699 23.9245 26.434 23.9245C28.0069 23.9245 29.4877 23.8396 30.8086 23.6905L31.3035 21.4636ZM32.1077 26.3012C30.4153 26.5441 28.4781 26.6792 26.434 26.6792C23.3125 26.6792 20.4403 26.3642 18.3084 25.8313C17.8896 25.7266 17.4872 25.6105 17.109 25.4819L19.4189 47.6029C19.4539 47.9353 19.5852 48.1142 19.6988 48.1934C20.6833 48.8792 22.9151 50.0943 26.4153 50.0943C29.9155 50.0943 32.1473 48.8792 33.1318 48.1934C33.2455 48.1142 33.3768 47.9353 33.4118 47.6029L35.7589 25.4819C35.3808 25.6105 34.9783 25.7266 34.5596 25.8313C33.8417 26.0107 33.0399 26.1655 32.1729 26.2918C32.1513 26.2955 32.1296 26.2986 32.1077 26.3012ZM16.7028 22.2283C16.7028 22.2283 16.7089 22.2337 16.7166 22.2448C16.706 22.234 16.7028 22.2283 16.7028 22.2283ZM36.1651 22.2283C36.1651 22.2283 36.162 22.234 36.1514 22.2448C36.1591 22.2337 36.1651 22.2283 36.1651 22.2283ZM35.6764 22.5471C35.2943 22.3564 34.7415 22.1549 34.0136 21.9666L33.7405 23.1957C33.7914 23.1835 33.8417 23.1712 33.8914 23.1588C34.68 22.9617 35.2732 22.7484 35.6764 22.5471Z" fill="#341D0A"/>
</svg>
