<svg width="42" height="42" viewBox="0 0 42 42" fill="none" xmlns="http://www.w3.org/2000/svg">
<circle cx="21" cy="21" r="21" fill="#341D0A"/>
<path d="M27.081 24.8088C28.366 23.0594 29.125 20.8996 29.125 18.5625C29.125 12.729 24.396 8 18.5625 8C12.729 8 8 12.729 8 18.5625C8 24.396 12.729 29.125 18.5625 29.125C20.9002 29.125 23.0605 28.3656 24.8102 27.08L24.8088 27.081C24.8567 27.146 24.9101 27.2082 24.969 27.267L31.226 33.5241C31.8606 34.1587 32.8895 34.1587 33.5241 33.5241C34.1587 32.8895 34.1587 31.8606 33.5241 31.226L27.267 24.969C27.2082 24.9101 27.146 24.8567 27.081 24.8088ZM27.5 18.5625C27.5 23.4985 23.4985 27.5 18.5625 27.5C13.6265 27.5 9.625 23.4985 9.625 18.5625C9.625 13.6265 13.6265 9.625 18.5625 9.625C23.4985 9.625 27.5 13.6265 27.5 18.5625Z" fill="#DCA06E"/>
</svg>
