<svg width="35" height="35" viewBox="0 0 35 35" fill="none" xmlns="http://www.w3.org/2000/svg">
<path d="M35 17.5C35 27.165 27.165 35 17.5 35C7.83502 35 0 27.165 0 17.5C0 7.83502 7.83502 0 17.5 0C27.165 0 35 7.83502 35 17.5Z" fill="#341D0A"/>
<g clip-path="url(#clip0_147_33)">
<path d="M23.8997 9.35512C23.4368 9.35512 22.9929 9.53901 22.6656 9.86632C22.3382 10.1936 22.1544 10.6376 22.1544 11.1005C22.1544 11.5634 22.3382 12.0073 22.6656 12.3346C22.9929 12.6619 23.4368 12.8458 23.8997 12.8458C24.3626 12.8458 24.8065 12.6619 25.1339 12.3346C25.4612 12.0073 25.6451 11.5634 25.6451 11.1005C25.6451 10.6376 25.4612 10.1936 25.1339 9.86632C24.8065 9.53901 24.3626 9.35512 23.8997 9.35512ZM20.9908 11.1005C20.9907 10.418 21.2306 9.75715 21.6685 9.23366C22.1065 8.71017 22.7145 8.35732 23.3863 8.23686C24.0581 8.1164 24.7509 8.236 25.3434 8.57472C25.9359 8.91345 26.3905 9.44973 26.6275 10.0897C26.8646 10.7298 26.869 11.4328 26.6401 12.0757C26.4112 12.7187 25.9635 13.2607 25.3753 13.607C24.7872 13.9532 24.096 14.0816 23.4227 13.9696C22.7494 13.8577 22.137 13.5126 21.6924 12.9947L13.8756 16.6251C14.0553 17.1946 14.0553 17.8056 13.8756 18.3751L21.6924 22.0054C22.1623 21.4589 22.8184 21.1063 23.5334 21.016C24.2485 20.9256 24.9716 21.1039 25.5626 21.5163C26.1537 21.9288 26.5706 22.5459 26.7326 23.2482C26.8946 23.9505 26.79 24.6879 26.4393 25.3176C26.0885 25.9472 25.5165 26.4242 24.8341 26.6561C24.1517 26.888 23.4075 26.8584 22.7458 26.5729C22.084 26.2874 21.5518 25.7663 21.2523 25.1108C20.9527 24.4552 20.9073 23.7118 21.1246 23.0247L13.3078 19.3944C12.9208 19.8453 12.405 20.167 11.8298 20.316C11.2546 20.465 10.6475 20.4343 10.0902 20.228C9.53296 20.0217 9.05225 19.6497 8.71276 19.162C8.37327 18.6743 8.19128 18.0943 8.19128 17.5001C8.19128 16.9058 8.37327 16.3259 8.71276 15.8382C9.05225 15.3505 9.53296 14.9784 10.0902 14.7721C10.6475 14.5658 11.2546 14.5351 11.8298 14.6841C12.405 14.8332 12.9208 15.1548 13.3078 15.6058L21.1246 11.9755C21.0356 11.6923 20.9905 11.3973 20.9908 11.1005V11.1005ZM11.1005 15.7547C10.6376 15.7547 10.1937 15.9386 9.86636 16.2659C9.53904 16.5932 9.35516 17.0372 9.35516 17.5001C9.35516 17.963 9.53904 18.4069 9.86636 18.7342C10.1937 19.0615 10.6376 19.2454 11.1005 19.2454C11.5634 19.2454 12.0073 19.0615 12.3346 18.7342C12.662 18.4069 12.8458 17.963 12.8458 17.5001C12.8458 17.0372 12.662 16.5932 12.3346 16.2659C12.0073 15.9386 11.5634 15.7547 11.1005 15.7547ZM23.8997 22.1543C23.4368 22.1543 22.9929 22.3382 22.6656 22.6655C22.3382 22.9928 22.1544 23.4368 22.1544 23.8997C22.1544 24.3626 22.3382 24.8065 22.6656 25.1338C22.9929 25.4611 23.4368 25.645 23.8997 25.645C24.3626 25.645 24.8065 25.4611 25.1339 25.1338C25.4612 24.8065 25.6451 24.3626 25.6451 23.8997C25.6451 23.4368 25.4612 22.9928 25.1339 22.6655C24.8065 22.3382 24.3626 22.1543 23.8997 22.1543Z" fill="#DCA06E"/>
</g>
<defs>
<clipPath id="clip0_147_33">
<rect width="18.617" height="18.617" fill="white" transform="translate(8.19153 8.1915)"/>
</clipPath>
</defs>
</svg>
