<svg width="47" height="47" viewBox="0 0 47 47" fill="none" xmlns="http://www.w3.org/2000/svg">
<circle cx="23.5" cy="23.5" r="23.5" fill="#341D0A"/>
<path d="M14.125 17.25C14.125 15.5241 15.5241 14.125 17.25 14.125H26.625C28.3509 14.125 29.75 15.5241 29.75 17.25V35.2188C29.75 35.5069 29.5914 35.7716 29.3374 35.9076C29.0834 36.0435 28.7751 36.0286 28.5354 35.8688L21.9375 31.4702L15.3396 35.8688C15.0999 36.0286 14.7916 36.0435 14.5376 35.9076C14.2836 35.7716 14.125 35.5069 14.125 35.2188V17.25ZM17.25 15.6875C16.3871 15.6875 15.6875 16.3871 15.6875 17.25V33.759L21.5041 29.8812C21.7666 29.7063 22.1084 29.7063 22.3709 29.8812L28.1875 33.759V17.25C28.1875 16.3871 27.4879 15.6875 26.625 15.6875H17.25Z" fill="#DCA06E"/>
<path d="M17.6681 12.5625H29.75C29.8579 12.5625 29.9632 12.5734 30.0649 12.5942C30.7769 12.7399 31.3125 13.3699 31.3125 14.125V32.5119L31.6604 32.7438C31.9001 32.9036 32.2084 32.9185 32.4624 32.7826C32.7164 32.6466 32.875 32.3819 32.875 32.0938V14.125C32.875 12.3991 31.4759 11 29.75 11H20.375C19.2183 11 18.2084 11.6284 17.6681 12.5625Z" fill="#DCA06E"/>
</svg>
